<svg width="61" height="60" viewBox="0 0 61 60" fill="none" xmlns="http://www.w3.org/2000/svg">
<path d="M46.6829 26.7677H45.3535V26.6992H30.5V33.3008H39.8272C38.4664 37.1437 34.81 39.9023 30.5 39.9023C25.0314 39.9023 20.5977 35.4686 20.5977 30C20.5977 24.5314 25.0314 20.0977 30.5 20.0977C33.0243 20.0977 35.3208 21.0499 37.0694 22.6054L41.7375 17.9373C38.7899 15.1902 34.8471 13.4961 30.5 13.4961C21.3857 13.4961 13.9961 20.8857 13.9961 30C13.9961 39.1143 21.3857 46.5039 30.5 46.5039C39.6143 46.5039 47.0039 39.1143 47.0039 30C47.0039 28.8934 46.89 27.8132 46.6829 26.7677Z" fill="#FFC107"/>
<path d="M15.8975 22.3183L21.3198 26.2949C22.787 22.6624 26.3403 20.0977 30.4985 20.0977C33.0227 20.0977 35.3193 21.0499 37.0678 22.6054L41.736 17.9373C38.7884 15.1902 34.8456 13.4961 30.4985 13.4961C24.1593 13.4961 18.6619 17.075 15.8975 22.3183Z" fill="#FF3D00"/>
<path d="M30.4963 46.5043C34.7593 46.5043 38.6327 44.8729 41.5613 42.2199L36.4534 37.8975C34.7407 39.2 32.648 39.9044 30.4963 39.9027C26.2036 39.9027 22.5588 37.1655 21.1856 33.3457L15.8037 37.4923C18.5351 42.8371 24.0821 46.5043 30.4963 46.5043Z" fill="#4CAF50"/>
<path d="M46.679 26.7682H45.3496V26.6997H30.4961V33.3013H39.8233C39.1724 35.1302 37.9999 36.7285 36.4507 37.8984L36.4532 37.8968L41.5611 42.2192C41.1997 42.5476 47 38.2524 47 30.0005C47 28.8939 46.8861 27.8137 46.679 26.7682Z" fill="#1976D2"/>
</svg>
